# xmcd
#
# Track frame offsets: 
#        150
#        17587
#        29532
#
# Disc length: 410 seconds
#
# Revision: 0
# Processed by: cddbd v1.5.1PL2 Copyright (c) Steve Scherf et al.
# Submitted via: ExactAudioCopy v0.95b3
#
DISCID=1a019803
DTITLE=Brian Wilson - What I Really Want For Christmas (UK Maxi-Single
DTITLE=)
DYEAR=2005
DGENRE=Christmas/Holiday
TTITLE0=What I Really Want For Christmas
TTITLE1=We Wish You A Merry Christmas
TTITLE2=Brian's Christmas Message
EXTD=
EXTT0=
EXTT1=
EXTT2=
PLAYORDER=
